<?xml version="1.0" standalone="no"?>
<!DOCTYPE svg PUBLIC "-//W3C//DTD SVG 20010904//EN"
 "http://www.w3.org/TR/2001/REC-SVG-20010904/DTD/svg10.dtd">
<svg version="1.0" xmlns="http://www.w3.org/2000/svg"
 width="16.000000pt" height="16.000000pt" viewBox="0 0 16.000000 16.000000"
 preserveAspectRatio="xMidYMid meet">
<metadata>
Created by potrace 1.11, written by Peter Selinger 2001-2013
</metadata>
<g transform="translate(0.000000,16.000000) scale(0.001563,-0.001563)"
fill="#000000" stroke="none">
<path d="M2912 8209 c-156 -30 -288 -173 -312 -336 -13 -90 -13 -5543 0 -5632
19 -134 107 -252 230 -310 l55 -26 2245 0 2245 0 57 27 c67 31 147 103 183
163 58 100 55 -39 55 2350 l0 2190 -792 792 -793 793 -1565 -1 c-861 -1 -1584
-5 -1608 -10z m2978 -1149 l0 -620 625 0 625 0 0 -2005 0 -2005 -2010 0 -2010
0 0 2618 c0 1440 3 2622 7 2625 3 4 627 7 1385 7 l1378 0 0 -620z"/>
<path d="M3630 6785 l0 -185 715 0 715 0 0 185 0 185 -715 0 -715 0 0 -185z"/>
<path d="M3630 5640 l0 -150 1505 0 1506 0 -3 148 -3 147 -1502 3 -1503 2 0
-150z"/>
<path d="M3630 4900 l0 -150 1505 0 1506 0 -3 148 -3 147 -1502 3 -1503 2 0
-150z"/>
<path d="M3630 4155 l0 -145 1505 0 1505 0 0 145 0 145 -1505 0 -1505 0 0
-145z"/>
<path d="M3630 3415 l0 -145 1505 0 1505 0 0 145 0 145 -1505 0 -1505 0 0
-145z"/>
</g>
</svg>
